<svg viewBox="0 0 77 77" xmlns="http://www.w3.org/2000/svg" xmlns:xlink="http://www.w3.org/1999/xlink" overflow="hidden"><defs><clipPath id="clip0"><rect x="718" y="492" width="77" height="77"/></clipPath></defs><g clip-path="url(#clip0)" transform="translate(-718 -492)"><path d="M718 530.5C718 509.237 735.237 492 756.5 492 777.763 492 795 509.237 795 530.5 795 551.763 777.763 569 756.5 569 735.237 569 718 551.763 718 530.5Z" fill="#DAE3F3" fill-rule="evenodd"/><path d="M732 530.013C732 518.96 740.96 510 752.013 510L760.987 510C772.04 510 781 518.96 781 530.013L781 533.987C781 545.04 772.04 554 760.987 554L752.013 554C740.96 554 732 545.04 732 533.987Z" fill="#203864" fill-rule="evenodd"/><path d="M743 527.049C743 523.156 746.156 520 750.049 520L762.951 520C766.844 520 770 523.156 770 527.049L770 537.951C770 541.844 766.844 545 762.951 545L750.049 545C746.156 545 743 541.844 743 537.951Z" fill="#FFFFFF" fill-rule="evenodd"/><path d="M725 531.277C725 527.258 728.258 524 732.277 524L735.723 524C739.742 524 743 527.258 743 531.277L743 532.723C743 536.742 739.742 540 735.723 540L732.277 540C728.258 540 725 536.742 725 532.723Z" fill="#203864" fill-rule="evenodd"/><path d="M771 531.277C771 527.258 774.258 524 778.277 524L781.723 524C785.742 524 789 527.258 789 531.277L789 532.723C789 536.742 785.742 540 781.723 540L778.277 540C774.258 540 771 536.742 771 532.723Z" fill="#203864" fill-rule="evenodd"/><path d="M751.599 526.977C752.516 526.977 753.284 527.204 753.901 527.658 754.342 527.98 754.664 528.459 754.869 529.093 754.324 529.208 753.78 529.324 753.235 529.439 753.131 529.047 752.923 528.747 752.611 528.538 752.3 528.329 751.933 528.225 751.51 528.225 750.906 528.225 750.412 528.416 750.031 528.797 749.649 529.179 749.458 529.809 749.458 530.687 749.458 531.598 749.644 532.246 750.016 532.631 750.388 533.016 750.871 533.208 751.466 533.208 751.901 533.208 752.278 533.086 752.595 532.841 752.913 532.596 753.142 532.207 753.283 531.674 753.816 531.823 754.349 531.973 754.882 532.123 754.633 532.932 754.218 533.523 753.637 533.896 753.056 534.27 752.341 534.456 751.493 534.456 750.427 534.456 749.562 534.159 748.9 533.563 748.138 532.876 747.756 531.948 747.756 530.781 747.756 529.547 748.14 528.582 748.908 527.885 749.575 527.279 750.472 526.977 751.599 526.977Z" fill="#203864" fill-rule="evenodd"/><path d="M763.021 526.977C763.938 526.977 764.705 527.204 765.323 527.658 765.764 527.98 766.086 528.459 766.291 529.093 765.746 529.208 765.202 529.324 764.657 529.439 764.552 529.047 764.345 528.747 764.033 528.538 763.722 528.329 763.355 528.225 762.932 528.225 762.328 528.225 761.834 528.416 761.453 528.797 761.071 529.179 760.88 529.809 760.88 530.687 760.88 531.598 761.066 532.246 761.438 532.631 761.81 533.016 762.293 533.208 762.888 533.208 763.323 533.208 763.7 533.086 764.017 532.841 764.335 532.596 764.564 532.207 764.705 531.674 765.238 531.823 765.771 531.973 766.304 532.123 766.055 532.932 765.639 533.523 765.059 533.896 764.478 534.27 763.763 534.456 762.915 534.456 761.849 534.456 760.984 534.159 760.322 533.563 759.559 532.876 759.178 531.948 759.178 530.781 759.178 529.547 759.562 528.582 760.33 527.885 760.997 527.279 761.894 526.977 763.021 526.977Z" fill="#203864" fill-rule="evenodd"/><path d="M764 551 742 560 746.649 551 764 551Z" fill="#203864" fill-rule="evenodd"/><path d="M752.234 540.611C752.234 539.645 752.234 538.678 752.234 537.712 752.61 537.712 752.986 537.712 753.362 537.712 753.362 538.16 753.362 538.607 753.362 539.055 755.808 539.055 758.253 539.055 760.698 539.055 760.698 538.607 760.698 538.16 760.698 537.712 761.075 537.712 761.451 537.712 761.827 537.712 761.827 538.678 761.827 539.645 761.827 540.611 758.629 540.611 755.432 540.611 752.234 540.611Z" fill="#203864" fill-rule="evenodd"/><path d="M728 510C728 507.791 729.791 506 732 506L732 506C734.209 506 736 507.791 736 510L736 511C736 513.209 734.209 515 732 515L732 515C729.791 515 728 513.209 728 511Z" fill="#203864" fill-rule="evenodd"/><path d="M731 510 732 510 732 532 731 532Z" fill="#203864"/><path d="M778 510C778 507.791 779.791 506 782 506L782 506C784.209 506 786 507.791 786 510L786 511C786 513.209 784.209 515 782 515L782 515C779.791 515 778 513.209 778 511Z" fill="#203864" fill-rule="evenodd"/><path d="M781 510 782 510 782 532 781 532Z" fill="#203864"/></g></svg>