<svg xmlns="http://www.w3.org/2000/svg" version="1.1" xlink="http://www.w3.org/1999/xlink" xmlns:svgjs="http://svgjs.com/svgjs" width="100%" height="100%" preserveAspectRatio="xMidYMid meet" viewBox="0.0021241670474410057 0.002022756030783057 263.32073974609375 146.99594116210938" overflow="visible"><defs id="SvgjsDefs71431"></defs><g id="SvgjsG71432" transform="scale(0.5330416524179994)" opacity="1"><g id="SvgjsG71433" class="cZtyeGsgd" transform="translate(-4.793498493224995, -10.121728691800833) scale(12.334171248960931)" stroke="#3166a4" stroke-width="0.16215114575845427px" light-content="false" non-strokable="false" fill="#1576e6"><path d="M23.563 8.815a3.493 3.493 0 0 0-2.303-3.876l-2.827-.983a7.558 7.558 0 0 1-1.765-.89L14.536 1.61a4.473 4.473 0 0 0-5.074 0L7.331 3.065a7.473 7.473 0 0 1-1.766.891l-2.825.983A3.49 3.49 0 0 0 .437 8.815l.403 2.436c.08.486.08.979 0 1.467l-.27 1.636a4.49 4.49 0 0 0 2.961 4.982l2.033.708a7.5 7.5 0 0 1 1.765.89l2.132 1.456c.77.526 1.654.789 2.537.789.884 0 1.767-.263 2.541-.791l2.132-1.456a7.493 7.493 0 0 1 1.764-.89l2.032-.707a4.49 4.49 0 0 0 2.96-4.983l-.268-1.62a4.459 4.459 0 0 1 0-1.467l.404-2.45zm-.99-.159l-.405 2.451a5.45 5.45 0 0 0 0 1.793l.268 1.62a3.492 3.492 0 0 1-2.303 3.876l-2.032.707a8.527 8.527 0 0 0-1.999 1.008l-2.132 1.456a3.48 3.48 0 0 1-3.947 0l-2.131-1.456a8.515 8.515 0 0 0-2-1.008l-2.034-.708a3.493 3.493 0 0 1-2.303-3.875l.27-1.636a5.443 5.443 0 0 0 0-1.792l-.403-2.436a2.495 2.495 0 0 1 1.645-2.77l2.826-.983a8.508 8.508 0 0 0 1.999-1.008l2.132-1.456a3.468 3.468 0 0 1 3.945.001l2.132 1.456c.62.423 1.293.762 2 1.008l2.827.983a2.495 2.495 0 0 1 1.645 2.769z"></path></g><g id="SvgjsG71434" class="jG00he5hE" transform="translate(27.49009337128263, 92.34362101934605) scale(0.9031700210797674)" light-content="false" non-strokable="false" fill="#2e52bd"><path d="M81.8 18.2C73.3 9.7 62 5 50 5S26.7 9.7 18.2 18.2 5 38 5 50s4.7 23.3 13.2 31.8S38 95 50 95s23.3-4.7 31.8-13.2S95 62 95 50s-4.7-23.3-13.2-31.8zM50 94C25.8 94 6 74.2 6 50S25.8 6 50 6s44 19.7 44 44-19.8 44-44 44z"></path><path d="M54 61.9h18.1c.3 0 .5-.2.5-.5s-.2-.5-.5-.5H54c-.3 0-.5.2-.5.5s.2.5.5.5zm-11.6 7c0-.3-.2-.5-.5-.5H25.8c-.3 0-.5.2-.5.5s.2.5.5.5h16.1c.2 0 .5-.3.5-.5zm7.2.5h7.7c.3 0 .5-.2.5-.5s-.2-.5-.5-.5h-7.7c-.3 0-.5.2-.5.5 0 .2.2.5.5.5zm21.8 3.4H51.9c-.3 0-.5.2-.5.5s.2.5.5.5h19.4c.3 0 .5-.2.5-.5.1-.2-.2-.5-.4-.5zm5.2-6c0-.3-.2-.5-.5-.5h-6.7c-.3 0-.5.2-.5.5s.2.5.5.5h6.7c.3 0 .5-.2.5-.5zm-36.1 9.6h-6.9c-.3 0-.5.2-.5.5s.2.5.5.5h6.9c.3 0 .5-.2.5-.5s-.3-.5-.5-.5zm-12.8-3.6H23c-.3 0-.5.2-.5.5s.2.5.5.5h4.7c.3 0 .5-.2.5-.5 0-.2-.2-.5-.5-.5zm31.9 7.8h-13c-.3 0-.5.2-.5.5s.2.5.5.5h13c.3 0 .5-.2.5-.5s-.2-.5-.5-.5zm-34.9-15c0-.3-.2-.5-.5-.5H18c-.3 0-.5.2-.5.5s.2.5.5.5h6.1c.3.1.6-.2.6-.5zm27.2 20H41.8c-.3 0-.5.2-.5.5s.2.5.5.5h10.1c.3 0 .5-.2.5-.5 0-.2-.3-.5-.5-.5zM69.8 77h-5.3c-.3 0-.5.2-.5.5s.2.5.5.5h5.3c.3 0 .5-.2.5-.5s-.2-.5-.5-.5z"></path><path d="M85.2 70.7c1.7-2.8 3-5.9 4-9.1v-.1c1.1-3.6 1.6-7.5 1.6-11.4C90.8 27.5 72.5 9.2 50 9.2S9.2 27.5 9.2 50c0 2.4.2 4.8.6 7.1v.1c.3 1.5.6 2.9 1 4.3v.1c2.1 7.2 6.2 13.6 11.7 18.6l.2.2C30 86.9 39.5 90.8 50 90.8c9 0 17.4-3 24.2-8 .1 0 .2-.1.2-.2 4.3-3.2 7.9-7.2 10.6-11.8.1.1.2 0 .2-.1zM50 10.2C71.9 10.2 89.8 28 89.8 50c0 1.4-.1 2.8-.2 4.1-1.1-.3-3.7-1-5.1-2.3-.1-.1-.2-.2-.4-.3-1.1-.8-3.1-1.9-5.2-3-2.6-1.4-5.3-2.9-6.4-3.8-.6-.6-1.3-1.1-2.1-1.8-1.8-1.5-3.9-3.2-5.8-5.6-1.8-2.2-4.1-4-6.1-5.5-1.3-1-2.6-1.9-3.6-2.9-2.4-2.4-6.3 1-10.1 4.3-.8.7-1.7 1.5-2.5 2.1-4.5 3.6-9.4 6.7-11 6.9-1.5.2-2.8 1.3-5.2 3.6-.9.8-2 1.9-3.4 3.1-4.1 3.6-10 6.3-11.9 7.2-.3-2-.5-4.2-.5-6.3-.1-21.7 17.8-39.6 39.7-39.6zm-.4 24.3c.2.9 0 1.1-.5 1.6-.3.3-.7.8-1.1 1.4-.9 1.6-1.5 2.7-2.5 4.3-.4.6-1 .9-1.7 1.2-.8.5-1.8 1-2.4 2.2-.4.8-1.1 1.7-1.7 2.5-.8 1-1.6 2.1-2 3.2-.3.8-1.4 1.7-2.5 2.6-1.4 1.1-2.8 2.3-3.4 3.7-.9 2-3.1 3.4-3.6 3.7H16.6c.9-.7 2.1-1.6 2.7-2.1.5-.4 1-.6 1.5-.8.5-.2 1.1-.5 1.7-1 .8-.6 1.2-1.1 1.7-1.7.2-.3.5-.6.8-.9.8-.8 4.3-3.1 5.5-4 .2-.2.3-.5.1-.7-.2-.2-.5-.3-.7-.1-.2.1-4.7 3.1-5.7 4.1l-.9.9c-.5.5-.9 1-1.6 1.5-.5.4-1 .6-1.5.8-.5.2-1.1.5-1.7 1-1 .8-3.2 2.5-3.8 2.9h-3.2c-.3-1.1-.6-2.3-.8-3.5 1.6-.7 8-3.6 12.4-7.4 1.4-1.2 2.5-2.3 3.4-3.1 2.3-2.1 3.5-3.2 4.7-3.4 2.1-.2 7.5-3.9 11.5-7.1.8-.7 1.7-1.4 2.5-2.2 2.4-2.1 4.9-4.3 6.7-4.8-.9 1.4-2.7 3.7-2.3 5.2zm24.2 47.4h-4c-.3 0-.5.2-.5.5s.2.5.5.5h2.5c-6.3 4.3-14 6.9-22.3 6.9-9.8 0-18.7-3.5-25.6-9.4h3.9c.3 0 .5-.2.5-.5s-.2-.5-.5-.5h-5.1c-5.1-4.7-9-10.7-11.2-17.5h37.3c.3 0 .5-.2.5-.5s-.2-.5-.5-.5H39.1l.9-.6c.9-.6 1.8-1.2 2.7-1.9.8-.7.8-.7 1.1-.7.3-.1.7-.2 1.7-.6.9-.4 1.4-.6 1.8-.8.6-.3.9-.4 1.8-.9.7-.4 1.1-1 1.5-1.6.6-.9 1.2-1.8 2.6-2.3 2.8-1.1 3.4-4.4 3.4-4.5 0-.3-.1-.6-.4-.6-.3 0-.6.1-.6.4 0 0-.5 2.9-2.8 3.7-1.7.6-2.5 1.8-3.1 2.7-.4.6-.7 1.1-1.1 1.3-.8.4-1.1.6-1.7.8-.4.2-.9.4-1.8.8s-1.3.5-1.5.6c-.5.1-.6.2-1.5 1-.8.7-1.7 1.2-2.6 1.8-.7.5-1.4.9-2.1 1.5H30c.9-.7 2-1.8 2.7-3.3.5-1.2 1.9-2.3 3.2-3.3 1.2-1 2.4-1.9 2.8-3 .4-1 1.1-2 1.9-3 .6-.8 1.3-1.7 1.8-2.6.5-.9 1.2-1.3 2-1.7.7-.4 1.5-.8 2.1-1.6 1.1-1.6 1.8-2.8 2.6-4.4.3-.5.6-.9.9-1.2.6-.6 1.1-1.2.7-2.6-.3-1 1.5-3.3 3-4.8.2.1.4.2.6.4.4.4.9.8 1.4 1.2.2.4 1.2 2.2.5 3.6-.6 1.3-.4 2.5-.1 3.9.1.8.3 1.7.3 2.8 0 .3.2.5.5.5s.5-.3.5-.5c0-1.1-.2-2.1-.4-3-.2-1.4-.4-2.3 0-3.3.4-.9.4-1.9.1-2.8.2.2.4.3.6.5 2.1 1.6 4.3 3.2 5.9 5.3 1 1.2 2 2.3 2.9 3.2.4 1 1.2 3.6 1.2 4.6 0 .4-.1.7-.2 1-.2.6-.5 1.2 0 2.5.2.5.4.8.5 1 .1.3.1.3.2 1v.4c.1 1.7.6 3.4.6 3.4.1.2.3.4.5.4h.1c.3-.1.4-.4.4-.6 0 0-.5-1.6-.6-3.2v-.4c0-.8-.1-.9-.3-1.3-.1-.2-.2-.5-.4-1-.3-.8-.2-1.2 0-1.7.1-.4.3-.8.3-1.5s-.4-2.1-.7-3.2c.5.4 1 .9 1.5 1.3.7.6 1.4 1.2 2 1.7 1.1 1 3.9 2.5 6.6 4 1.4.8 2.9 1.5 4 2.2-1.5.3-3.8.7-4.6 1.5-.2.2-.2.5 0 .7.1.1.2.2.4.2s.3-.1.4-.2c.6-.6 3.4-1.2 5.2-1.4.1 0 .1.1.2.1 1.7 1.4 4.6 2.3 5.7 2.5-.3 1.9-.6 3.8-1.2 5.7h-8.8c-.3 0-.5.2-.5.5s.2.5.5.5H88c-.9 2.9-2.1 5.6-3.6 8.1h-7.5c-.3 0-.5.2-.5.5s.2.5.5.5h6.9c-2.7 4.1-6.1 7.8-10 10.8z"></path><path d="M33.8 33c3.3 0 5.9-2.7 5.9-5.9 0-3.3-2.7-5.9-5.9-5.9-3.3 0-5.9 2.7-5.9 5.9 0 3.3 2.6 5.9 5.9 5.9zm0-10.7c2.7 0 4.9 2.2 4.9 4.9s-2.2 4.9-4.9 4.9-4.9-2.2-4.9-4.9 2.2-4.9 4.9-4.9z"></path></g><g id="SvgjsG71435" class="text" transform="translate(322.750562899606, 170.62324628284313) scale(1)" light-content="false" fill="#2e52bd"><path d="M-156.92 -3.3C-152.52 -0.6 -147.28 0.74 -141.2 0.74C-131.89 0.74 -124.39 -2.23 -118.68 -8.19L-120.63 -11.44C-123.92 -8.47 -127.16 -6.33 -130.36 -5.02C-133.55 -3.72 -137.2 -3.07 -141.29 -3.07C-149.35 -3.07 -155.59 -5.71 -159.99 -10.98C-164.4 -16.25 -166.6 -23.66 -166.6 -33.22C-166.6 -42.71 -164.38 -50.07 -159.95 -55.32C-155.51 -60.56 -149.29 -63.18 -141.29 -63.18C-137.2 -63.18 -133.55 -62.53 -130.36 -61.22C-127.16 -59.92 -123.92 -57.78 -120.63 -54.8L-118.68 -58.06C-124.39 -64.02 -131.89 -66.99 -141.2 -66.99C-147.28 -66.99 -152.52 -65.64 -156.92 -62.95C-161.33 -60.25 -164.72 -56.37 -167.11 -51.32C-169.5 -46.26 -170.69 -40.23 -170.69 -33.22C-170.69 -26.21 -169.5 -20.14 -167.11 -15.03C-164.72 -9.91 -161.33 -6 -156.92 -3.3Z M-94.21 -3.3C-89.81 -0.6 -84.56 0.74 -78.48 0.74C-69.18 0.74 -61.67 -2.23 -55.97 -8.19L-57.92 -11.44C-61.21 -8.47 -64.45 -6.33 -67.64 -5.02C-70.84 -3.72 -74.48 -3.07 -78.58 -3.07C-86.64 -3.07 -92.88 -5.71 -97.28 -10.98C-101.68 -16.25 -103.89 -23.66 -103.89 -33.22C-103.89 -42.71 -101.67 -50.07 -97.23 -55.32C-92.8 -60.56 -86.58 -63.18 -78.58 -63.18C-74.48 -63.18 -70.84 -62.53 -67.64 -61.22C-64.45 -59.92 -61.21 -57.78 -57.92 -54.8L-55.97 -58.06C-61.67 -64.02 -69.18 -66.99 -78.48 -66.99C-84.56 -66.99 -89.81 -65.64 -94.21 -62.95C-98.61 -60.25 -102.01 -56.37 -104.4 -51.32C-106.79 -46.26 -107.98 -40.23 -107.98 -33.22C-107.98 -26.21 -106.79 -20.14 -104.4 -15.03C-102.01 -9.91 -98.61 -6 -94.21 -3.3Z M-44.89 -23.08L-20.14 -23.08L-20.14 -26.7L-44.89 -26.7Z M39.78 -28.33C37.67 -31.09 34.72 -32.97 30.94 -33.96C34.29 -35.2 36.88 -37.09 38.71 -39.64C40.54 -42.18 41.45 -45.25 41.45 -48.85C41.45 -54.49 39.64 -58.81 36.01 -61.78C32.38 -64.76 27.22 -66.25 20.52 -66.25L-3.95 -66.25L-3.95 0L21.54 0C28.43 0 33.71 -1.52 37.4 -4.56C41.1 -7.6 42.94 -12.07 42.94 -17.96C42.94 -22.11 41.89 -25.57 39.78 -28.33ZM-0.05 -35.54L-0.05 -62.62L20.05 -62.62C31.53 -62.62 37.27 -58.22 37.27 -49.41C37.27 -44.88 35.81 -41.44 32.89 -39.08C29.98 -36.72 25.7 -35.54 20.05 -35.54ZM34.52 -7.03C31.7 -4.76 27.34 -3.63 21.45 -3.63L-0.05 -3.63L-0.05 -31.73L21.45 -31.73C32.98 -31.73 38.75 -26.98 38.75 -17.49C38.75 -12.78 37.34 -9.29 34.52 -7.03Z M64.43 -2.33C67.6 -0.34 71.23 0.65 75.32 0.65C79.42 0.65 83.03 -0.34 86.16 -2.33C89.29 -4.31 91.71 -7.13 93.42 -10.79C95.12 -14.45 95.98 -18.7 95.98 -23.54C95.98 -28.38 95.12 -32.61 93.42 -36.24C91.71 -39.87 89.29 -42.68 86.16 -44.66C83.03 -46.65 79.42 -47.64 75.32 -47.64C71.23 -47.64 67.6 -46.65 64.43 -44.66C61.27 -42.68 58.84 -39.87 57.13 -36.24C55.42 -32.61 54.57 -28.38 54.57 -23.54C54.57 -18.7 55.42 -14.45 57.13 -10.79C58.84 -7.13 61.27 -4.31 64.43 -2.33ZM87.46 -8.47C84.58 -4.93 80.5 -3.16 75.23 -3.16C69.96 -3.16 65.89 -4.92 63.04 -8.42C60.19 -11.93 58.76 -16.97 58.76 -23.54C58.76 -29.93 60.23 -34.91 63.18 -38.47C66.12 -42.04 70.17 -43.82 75.32 -43.82C80.47 -43.82 84.5 -42.03 87.42 -38.43C90.33 -34.83 91.79 -29.87 91.79 -23.54C91.79 -17.03 90.35 -12 87.46 -8.47Z M115.05 -43.17L129.19 -43.17L129.19 -46.52L115.05 -46.52L115.05 -60.85L111.14 -59.18L111.14 -46.52L101.84 -46.52L101.84 -43.17L111.14 -43.17L111.14 -12.19C111.14 -7.85 112.24 -4.64 114.45 -2.56C116.65 -0.48 119.61 0.56 123.33 0.56C125.19 0.56 127.05 0.31 128.92 -0.19L128.92 -4C127.3 -3.44 125.57 -3.16 123.71 -3.16C120.85 -3.16 118.7 -3.89 117.24 -5.35C115.78 -6.81 115.05 -9.52 115.05 -13.49Z M136.64 -5.68C140.86 -1.46 146.63 0.65 153.95 0.65C159.22 0.65 163.42 -0.53 166.55 -2.88C169.69 -5.24 171.25 -8.31 171.25 -12.1C171.25 -15.14 170.23 -17.68 168.18 -19.73C166.13 -21.77 163.06 -23.26 158.97 -24.19L150.97 -26.15C148.11 -26.83 146.01 -27.88 144.64 -29.31C143.28 -30.74 142.59 -32.63 142.59 -34.99C142.59 -37.78 143.66 -39.95 145.8 -41.5C147.94 -43.05 150.97 -43.82 154.88 -43.82C157.54 -43.82 159.99 -43.34 162.23 -42.38C164.46 -41.42 166.63 -39.98 168.74 -38.06L170.6 -41.41C168.93 -43.39 166.71 -44.93 163.95 -46.01C161.19 -47.1 158.16 -47.64 154.88 -47.64C149.79 -47.64 145.74 -46.43 142.73 -44.01C139.72 -41.59 138.22 -38.4 138.22 -34.43C138.22 -31.57 139.31 -29.03 141.48 -26.8C143.65 -24.56 146.5 -23.04 150.04 -22.24L157.95 -20.38C161.11 -19.57 163.4 -18.5 164.83 -17.17C166.26 -15.83 166.97 -14.05 166.97 -11.82C166.97 -9.03 165.89 -6.9 163.72 -5.44C161.54 -3.99 158.38 -3.26 154.22 -3.26C150.94 -3.26 148.1 -3.68 145.71 -4.51C143.32 -5.35 140.89 -6.82 138.41 -8.93Z"></path></g></g></svg>